<svg width="27" height="32" viewBox="0 0 27 32" fill="none" xmlns="http://www.w3.org/2000/svg">
    <path
        d="M18.2123 28.2577H23.835V13.1457L13.439 3.67499L3.04033 13.1457V28.2577H8.98566V21.0897C8.98566 20.323 9.607 19.703 10.371 19.703H16.827C17.591 19.703 18.2123 20.323 18.2123 21.0897V28.2577ZM25.2203 31.0283H16.827C16.063 31.0283 15.4417 30.4083 15.4417 29.643V22.4737H11.7563V29.643C11.7563 30.4083 11.135 31.0283 10.371 31.0283H1.655C0.890996 31.0283 0.270996 30.4083 0.270996 29.643V12.5337C0.270996 12.1443 0.434997 11.7723 0.722997 11.5097L12.5057 0.776321C13.0337 0.294987 13.843 0.294987 14.371 0.776321L26.1523 11.5097C26.4417 11.7723 26.6057 12.1443 26.6057 12.5337V29.643C26.6057 30.4083 25.9843 31.0283 25.2203 31.0283Z"
        fill="white" />
</svg>