<svg width="112" height="170" viewBox="0 0 112 170" fill="none" xmlns="http://www.w3.org/2000/svg">
    <path
        d="M77.595 151.968C77.571 151.325 76.1003 135.518 76.1003 135.518L84.3123 133.873L85.9097 150.312L77.595 151.968Z"
        fill="#EDBBA0" />
    <path
        d="M101.206 150.829L78.3057 155.521L76.8977 148.486L92.7097 145.246C96.5977 144.442 100.4 146.941 101.206 150.829Z"
        fill="#161616" />
    <path
        d="M47.009 62.97L79.2276 87.6887L80.2463 88.4687C81.9863 89.8047 82.9836 91.7794 83.165 93.8047L87.097 139.11L75.665 140.805L68.017 94.258L71.953 100.375L33.8263 84.4234L47.009 62.97Z"
        fill="#1E3248" />
    <path
        d="M26.41 77.7705L54.1887 67.8878C56.5074 67.1692 57.8047 64.7065 57.086 62.3878L45.2967 24.3345L23.1154 31.2078C15.158 33.6732 10.7034 42.1252 13.1687 50.0838L26.41 77.7705Z"
        fill="#E9C66F" />
    <path
        d="M110.073 68.1914L55.1075 82.0154C53.7449 82.3581 52.3595 81.5301 52.0169 80.1648L38.1942 25.2008C37.8502 23.8354 38.6782 22.4514 40.0435 22.1088L95.0075 8.2861C96.3729 7.9421 97.7569 8.7701 98.0995 10.1354L111.922 65.0994C112.266 66.4634 111.437 67.8488 110.073 68.1914Z"
        fill="#279AFF" />
    <path
        d="M26.207 165.126C26.355 164.501 28.6044 148.893 28.6044 148.893L36.9577 149.498L34.6617 165.749L26.207 165.126Z"
        fill="#EDBBA0" />
    <path
        d="M49.5273 169.572L26.1526 169.51L26.2019 162.336L42.3433 162.379C46.3139 162.382 49.5299 165.602 49.5273 169.572Z"
        fill="#27222E" />
    <path
        d="M45.5715 69.215L49.6609 101.772L49.9515 103.442C50.0929 104.251 50.0555 105.082 49.8849 105.836L39.2915 156.112L26.7929 155.199L33.7142 104.194L33.9382 108.256L26.1555 76.583L45.5715 69.215Z"
        fill="#20375E" />
    <path
        d="M80.4023 52.9264C79.7076 55.8771 76.7503 57.7064 73.7996 57.0104C70.8476 56.3158 69.0183 53.3598 69.7129 50.4078C70.4089 47.4558 73.3663 45.6264 76.3183 46.3224C79.2676 47.0184 81.0969 49.9744 80.4023 52.9264Z"
        fill="#EDBBA0" />
    <path d="M71.8045 48.7037L60.7952 54.7277L64.2605 59.8037L77.1752 53.8357L71.8045 48.7037Z" fill="#EDBBA0" />
    <path
        d="M39.6196 13.522C38.6143 19.5913 32.877 23.6966 26.809 22.69C20.7396 21.6846 16.6343 15.9486 17.641 9.8793C18.6476 3.80864 24.3823 -0.295364 30.4516 0.711303C36.5223 1.71664 40.6263 7.45264 39.6196 13.522Z"
        fill="#EDBBA0" />
    <mask id="mask0_17_161" style="mask-type:luminance" maskUnits="userSpaceOnUse" x="17" y="0" width="23" height="23">
        <path
            d="M17.6412 9.8791C16.6332 15.9498 20.7385 21.6856 26.8092 22.6909C32.8772 23.6976 38.6146 19.5923 39.6199 13.523C40.6266 7.45231 36.5212 1.7163 30.4519 0.710965C29.8345 0.609631 29.2212 0.558947 28.6159 0.558947C23.2652 0.56028 18.5452 4.4271 17.6412 9.8791Z"
            fill="white" />
    </mask>
    <g mask="url(#mask0_17_161)">
        <path d="M31.3813 -2.61993L20.2267 24.7334L13.8467 6.29607L31.3813 -2.61993Z" fill="#182543" />
    </g>
    <path
        d="M26.8178 12.3828C26.5364 14.0828 24.9298 15.2321 23.2311 14.9508C21.5298 14.6681 20.3804 13.0628 20.6631 11.3628C20.9444 9.6628 22.5511 8.51346 24.2498 8.7948C25.9511 9.07746 27.1004 10.6828 26.8178 12.3828Z"
        fill="#EDBBA0" />
    <path
        d="M19.2005 19.8254C17.0659 24.7681 11.3312 27.0441 6.38852 24.9094C1.44585 22.7761 -0.830146 17.0401 1.30319 12.0974C3.43785 7.15474 9.17252 4.87874 14.1165 7.01208C19.0592 9.14674 21.3352 14.8827 19.2005 19.8254Z"
        fill="#182543" />
    <path
        d="M33.4479 21.0142C33.4932 21.6569 34.5439 36.4355 34.5439 36.4355L24.4492 30.6955L24.8252 21.2729L33.4479 21.0142Z"
        fill="#EDBBA0" />
    <path
        d="M41.944 74.729C39.908 74.797 37.8933 73.861 36.6507 72.0876L17.0107 44.0476C15.044 41.241 15.7267 37.3716 18.532 35.405C21.34 33.4383 25.2093 34.1196 27.176 36.9276L43.5573 60.3156L67.5987 46.4756L73.7933 57.229L44.8293 73.9036C43.92 74.4276 42.9293 74.697 41.944 74.729Z"
        fill="#F2D279" />
</svg>