<svg width="80" height="59" viewBox="0 0 80 59" fill="none" xmlns="http://www.w3.org/2000/svg">
    <g clip-path="url(#clip0_11_5)">
        <path
            d="M60.6202 34.3263C59.2139 32.9057 56.9441 32.9057 55.5378 34.3263L47.2471 42.7523L31.7837 27.0355C30.3775 25.6148 28.1076 25.6148 26.7014 27.0355L1.4702 52.681C0.0757259 54.1252 0.0984923 56.4451 1.52028 57.8616C2.18109 58.5205 3.06694 58.8953 3.99312 58.9092H76.0827C78.0744 58.9206 79.6973 57.2899 79.709 55.2671C79.7139 54.2819 79.3305 53.3374 78.6427 52.6438L60.6202 34.3263Z"
            fill="white" />
        <path
            d="M50.8517 0.29126C56.8239 0.29126 61.6654 5.21154 61.6654 11.2821C61.6654 17.3527 56.8239 22.273 50.8517 22.273C44.8791 22.273 40.0381 17.3527 40.0381 11.2821C40.0381 5.21154 44.8791 0.29126 50.8517 0.29126Z"
            fill="white" />
    </g>
    <defs>
        <clipPath id="clip0_11_5">
            <rect width="80" height="59" fill="white" />
        </clipPath>
    </defs>
</svg>