<svg width="29" height="30" viewBox="0 0 29 30" fill="none" xmlns="http://www.w3.org/2000/svg">
    <path
        d="M23.9817 29.3799H1.7817C1.01636 29.3799 0.396362 28.7599 0.396362 27.9945V4.60922C0.396362 3.84522 1.01636 3.22388 1.7817 3.22388H13.9177C14.6817 3.22388 15.303 3.84522 15.303 4.60922C15.303 5.37455 14.6817 5.99455 13.9177 5.99455H3.16703V26.6092H22.5977V16.3025C22.5977 15.5372 23.2177 14.9172 23.9817 14.9172C24.747 14.9172 25.367 15.5372 25.367 16.3025V27.9945C25.367 28.7599 24.747 29.3799 23.9817 29.3799Z"
        fill="white" />
    <mask id="mask0_0_1" style="mask-type:luminance" maskUnits="userSpaceOnUse" x="17" y="1" width="12" height="12">
        <path
            d="M17.3987 6.68799C17.3987 9.62932 19.784 12.0146 22.728 12.0146C25.6694 12.0146 28.056 9.62932 28.056 6.68799C28.056 3.74399 25.6694 1.35864 22.728 1.35864C19.784 1.35864 17.3987 3.74399 17.3987 6.68799Z"
            fill="white" />
    </mask>
    <g mask="url(#mask0_0_1)">
        <path d="M17.3987 1.35864H28.056V12.0146H17.3987V1.35864Z" fill="white" />
        <path
            d="M28.3919 12.9387H22.8493H17.2613V13.8267C17.2493 12.1747 19.7293 10.816 22.8039 10.7933C25.8759 10.768 28.3786 12.0867 28.3919 13.7387V12.9387Z"
            fill="white" />
        <path
            d="M28.2878 12.9385H22.8492H17.3652V13.8252C17.3518 12.2039 19.7865 10.8719 22.8038 10.8479C25.8198 10.8239 28.2758 12.1185 28.2878 13.7385V12.9385Z"
            fill="#FCFCFC" />
        <path
            d="M28.185 12.9384H22.849H17.4677V13.8237C17.4544 12.2344 19.8437 10.9264 22.8037 10.9037C25.7637 10.8797 28.1717 12.1504 28.185 13.7397V12.9384Z"
            fill="#FAFAFA" />
        <path
            d="M28.0821 12.9388H22.8488H17.5701V13.8228C17.5581 12.2641 19.9008 10.9814 22.8034 10.9588C25.7074 10.9361 28.0701 12.1814 28.0821 13.7414V12.9388Z"
            fill="#F8F8F8" />
        <path
            d="M27.9792 12.9388H22.8472H17.6739V13.8228C17.6619 12.2934 19.9579 11.0361 22.8045 11.0148C25.6499 10.9921 27.9672 12.2134 27.9792 13.7414V12.9388Z"
            fill="#F7F7F6" />
        <path
            d="M27.8763 12.9386H22.8483H17.7763V13.8213C17.7656 12.324 20.0149 11.0906 22.8043 11.0693C25.5936 11.048 27.8643 12.244 27.8763 13.7426V12.9386Z"
            fill="#F5F5F5" />
        <path
            d="M27.7735 12.9386H22.8482H17.8802V13.8213C17.8682 12.3533 20.0735 11.1466 22.8055 11.124C25.5375 11.104 27.7615 12.2746 27.7735 13.744V12.9386Z"
            fill="#F3F3F3" />
        <path
            d="M27.6694 12.9385H22.8467H17.9827V13.8198C17.972 12.3825 20.1307 11.2012 22.8067 11.1798C25.48 11.1598 27.6587 12.3065 27.6694 13.7438V12.9385Z"
            fill="#F1F1F1" />
        <path
            d="M27.5665 12.9385H22.8465H18.0865V13.8198C18.0745 12.4118 20.1891 11.2558 22.8065 11.2345C25.4251 11.2145 27.5558 12.3372 27.5665 13.7438V12.9385Z"
            fill="#F0F0EF" />
        <path
            d="M27.4637 12.9384H22.8463H18.189V13.8184C18.1783 12.4424 20.245 11.3104 22.8077 11.2904C25.369 11.2704 27.453 12.369 27.4637 13.745V12.9384Z"
            fill="#EEEEEE" />
        <path
            d="M27.3608 12.9387H22.8448H18.2914V13.8174C18.2808 12.472 20.3034 11.3654 22.8074 11.3454C25.3114 11.3267 27.3501 12.4014 27.3608 13.7467V12.9387Z"
            fill="#EEEEED" />
        <path
            d="M27.258 12.9386H22.8446H18.3953V13.8159C18.3846 12.5013 20.3593 11.4213 22.8073 11.4013C25.2553 11.3826 27.2473 12.4319 27.258 13.7466V12.9386Z"
            fill="#ECECEC" />
        <path
            d="M27.155 12.9386H22.8457H18.4977V13.8159C18.4884 12.5319 20.4177 11.4759 22.807 11.4573C25.1977 11.4386 27.1444 12.4639 27.155 13.7479V12.9386Z"
            fill="#EAEAEA" />
        <path
            d="M27.0522 12.9385H22.8442H18.6015V13.8145C18.5908 12.5611 20.4748 11.5305 22.8082 11.5118C25.1415 11.4931 27.0415 12.4945 27.0522 13.7478V12.9385Z"
            fill="#E9E9E9" />
        <path
            d="M26.9492 12.9385H22.8439H18.7039V13.8145C18.6946 12.5918 20.5332 11.5851 22.8092 11.5678C25.0866 11.5491 26.9386 12.5265 26.9492 13.7491V12.9385Z"
            fill="#E7E7E7" />
        <path
            d="M26.8451 12.9388H22.8424H18.8078V13.8135C18.7984 12.6215 20.5904 11.6401 22.8104 11.6228C25.0291 11.6055 26.8358 12.5575 26.8451 13.7508V12.9388Z"
            fill="#E6E6E6" />
        <path
            d="M26.7422 12.9387H22.8422H18.9102V13.812C18.9009 12.6507 20.6475 11.6947 22.8102 11.6787C24.9729 11.6613 26.7329 12.5893 26.7422 13.7507V12.9387Z"
            fill="#E5E5E4" />
        <path
            d="M26.6394 12.9387H22.8421H19.0127V13.812C19.0034 12.6813 20.7047 11.7493 22.8101 11.7333C24.9167 11.716 26.6301 12.6213 26.6394 13.752V12.9387Z"
            fill="#E3E3E3" />
        <path
            d="M26.5365 12.9385H22.8418H19.1165V13.8105C19.1085 12.7105 20.7618 11.8052 22.8098 11.7892C24.8592 11.7719 26.5272 12.6519 26.5365 13.7519V12.9385Z"
            fill="#E2E2E1" />
        <path
            d="M26.4337 12.9384H22.8417H19.219V13.8091C19.211 12.7397 20.819 11.8597 22.811 11.8437C24.803 11.8277 26.4244 12.6837 26.4337 13.7531V12.9384Z"
            fill="#E1E1E0" />
        <path
            d="M26.3308 12.9384H22.8415H19.3228V13.8091C19.3135 12.7691 20.8761 11.9144 22.8108 11.8997C24.7481 11.8837 26.3215 12.7144 26.3308 13.7531V12.9384Z"
            fill="#DFDFDF" />
        <path
            d="M26.2266 12.9388H22.8413H19.4253V13.8081C19.4186 12.8001 20.9333 11.9694 22.812 11.9548C24.6906 11.9401 26.2186 12.7454 26.2266 13.7548V12.9388Z"
            fill="#DEDEDE" />
        <path
            d="M26.1238 12.9388H22.8398H19.5291V13.8081C19.5211 12.8294 20.9904 12.0241 22.8131 12.0108C24.6344 11.9961 26.1158 12.7774 26.1238 13.7561V12.9388Z"
            fill="#DDDDDC" />
    </g>
    <path
        d="M22.7277 1.82105C20.0437 1.82105 17.861 4.00372 17.861 6.68638C17.861 9.37038 20.0437 11.5531 22.7277 11.5531C25.4103 11.5531 27.593 9.37038 27.593 6.68638C27.593 4.00372 25.4103 1.82105 22.7277 1.82105ZM22.7277 12.4771C19.533 12.4771 16.937 9.87972 16.937 6.68638C16.937 3.49438 19.533 0.89705 22.7277 0.89705C25.921 0.89705 28.517 3.49438 28.517 6.68638C28.517 9.87972 25.921 12.4771 22.7277 12.4771Z"
        fill="white" />
</svg>