<svg width="431" height="80" viewBox="0 0 431 80" fill="none" xmlns="http://www.w3.org/2000/svg">
    <g clip-path="url(#clip0_11_10)">
        <path
            d="M105.146 31.9669H0.0913086C0.0913086 31.9669 7.78881 0.356445 34.9588 0.356445C55.0906 0.356445 65.5393 13.1107 69.6048 19.7221C77.5448 16.6095 94.6415 12.8331 105.146 31.9669Z"
            fill="white" />
        <path
            d="M239.099 56.7191C244.266 56.7191 249.108 58.1233 253.31 60.5546C261.337 46.5289 276.149 37.0853 293.141 37.0853C309.01 37.0853 323.002 45.3039 331.323 57.8132C335.715 42.7426 349.311 31.752 365.42 31.752C383.702 31.752 398.748 45.9061 400.771 64.1188C402.243 63.8833 403.739 63.7243 405.274 63.7243C416.426 63.7243 426.092 70.1943 430.945 79.6691H210.894C213.901 66.5198 225.372 56.7191 239.099 56.7191Z"
            fill="white" />
    </g>
    <defs>
        <clipPath id="clip0_11_10">
            <rect width="431" height="80" fill="white" />
        </clipPath>
    </defs>
</svg>