<svg width="1871" height="1636" viewBox="0 0 1871 1636" fill="none" xmlns="http://www.w3.org/2000/svg">
    <mask id="mask0_1_507" style="mask-type:luminance" maskUnits="userSpaceOnUse" x="0" y="0" width="1871"
        height="1636">
        <path d="M0 -6.55651e-06H1871V1636H0V-6.55651e-06Z" fill="white" />
    </mask>
    <g mask="url(#mask0_1_507)">
        <path
            d="M1051.03 -4.87566e-05C1051.03 -4.87566e-05 615.394 89.9306 641.055 509.072C666.717 928.212 528.701 1008.56 326.293 1101.93C131.146 1191.96 -30.422 1320.87 5.2833 1636H1870.48V-4.87566e-05H1051.03Z"
            fill="#F6F7FA" />
        <path
            d="M1380.32 1163.82H445.014C436.956 1163.82 430.424 1157.29 430.424 1149.23V1066.37H1394.91V1149.23C1394.91 1157.29 1388.38 1163.82 1380.32 1163.82Z"
            fill="#C7DBF5" />
        <path d="M1013.55 1249.08H815.616V1163.82H1013.55V1249.08Z" fill="#84AAD7" />
        <path
            d="M1394.91 1067.95H430.425V517.815C430.425 510.369 436.462 504.332 443.909 504.332H1381.42C1388.87 504.332 1394.91 510.369 1394.91 517.815V1067.95Z"
            fill="#344B7E" />
        <path d="M1361.75 1033.15H469.607V544.882H1361.75V1033.15Z" fill="#DAE6F5" />
        <path
            d="M934.453 1110.73C934.453 1122.76 924.7 1132.52 912.666 1132.52C900.636 1132.52 890.881 1122.76 890.881 1110.73C890.881 1098.7 900.636 1088.95 912.666 1088.95C924.7 1088.95 934.453 1098.7 934.453 1110.73Z"
            fill="white" />
        <path
            d="M1302.92 984.052H872.159C869.894 984.052 868.058 982.216 868.058 979.952V593.447C868.058 591.183 869.894 589.347 872.159 589.347H1302.92C1305.18 589.347 1307.02 591.183 1307.02 593.447V979.952C1307.02 982.216 1305.18 984.052 1302.92 984.052Z"
            fill="white" />
        <path
            d="M818.812 984.052H532.907C530.643 984.052 528.807 982.216 528.807 979.952V775.298C528.807 773.032 530.643 771.198 532.907 771.198H818.812C821.076 771.198 822.912 773.032 822.912 775.298V979.952C822.912 982.216 821.076 984.052 818.812 984.052Z"
            fill="white" />
        <path
            d="M1503.59 875.51L1503.47 875.516C1517.91 860.432 1511.12 843.768 1508.51 838.698C1508.5 838.69 1508.5 838.681 1508.49 838.672C1507.99 837.696 1507.62 837.112 1507.62 837.112L1507.75 837.137C1503.57 828.886 1501.16 819.585 1501.16 809.702C1501.16 792.908 1507.97 777.704 1518.97 766.698C1529.08 753.313 1521.43 735.516 1521.43 735.516H1521.45C1519.88 731.038 1518.97 726.244 1518.97 721.226C1518.97 697.476 1538.22 678.222 1561.98 678.222C1585.73 678.222 1604.98 697.476 1604.98 721.226C1604.98 726.244 1604.07 731.038 1602.5 735.516H1602.52C1602.52 735.516 1594.87 753.313 1604.98 766.698C1615.98 777.704 1622.79 792.908 1622.79 809.702C1622.79 819.577 1620.39 828.873 1616.21 837.12L1616.25 837.112C1616.25 837.112 1616.17 837.23 1616.06 837.42C1615.72 838.092 1615.38 838.762 1615.01 839.42C1612.31 845.002 1607.1 859.902 1619 873.869C1619.37 874.3 1619.74 874.721 1620.1 875.16C1620.21 875.278 1620.29 875.398 1620.4 875.516L1620.36 875.513C1630.65 888.334 1636.84 904.589 1636.84 922.306C1636.84 963.652 1603.32 997.169 1561.98 997.169C1520.63 997.169 1487.11 963.652 1487.11 922.306C1487.11 904.586 1493.3 888.33 1503.59 875.51Z"
            fill="#6CBECA" />
        <path
            d="M1539.97 915.904L1558.3 934.045V870.299L1535.78 848.023C1534.62 846.867 1534.61 844.985 1535.76 843.819C1536.92 842.648 1538.8 842.641 1539.97 843.795L1558.3 861.933V774.001C1558.3 772.359 1559.64 771.028 1561.28 771.028C1562.92 771.028 1564.25 772.359 1564.25 774.001V826.992L1582.08 809.263C1583.25 808.107 1585.13 808.107 1586.29 809.273C1587.45 810.439 1587.45 812.32 1586.28 813.48L1564.25 835.379V899.403L1583.96 879.492C1585.11 878.323 1586.99 878.317 1588.17 879.471C1589.33 880.625 1589.35 882.508 1588.19 883.675L1564.25 907.857V1077.7C1564.25 1079.34 1562.92 1080.67 1561.28 1080.67C1559.64 1080.67 1558.3 1079.34 1558.3 1077.7V942.412L1535.78 920.133C1534.62 918.977 1534.61 917.096 1535.76 915.928C1536.92 914.757 1538.8 914.752 1539.97 915.904Z"
            fill="#589BAD" />
        <path
            d="M1632.42 1083.34H1534.19C1532.36 1083.34 1530.88 1081.86 1530.88 1080.04C1530.88 1078.21 1532.36 1076.73 1534.19 1076.73H1632.42C1634.24 1076.73 1635.72 1078.21 1635.72 1080.04C1635.72 1081.86 1634.24 1083.34 1632.42 1083.34Z"
            fill="#CEDDED" />
        <path
            d="M787.824 921.805H563.658C562.89 921.805 562.268 921.182 562.268 920.415V910.457C562.268 909.689 562.89 909.067 563.658 909.067H787.824C788.591 909.067 789.212 909.689 789.212 910.457V920.415C789.212 921.182 788.591 921.805 787.824 921.805Z"
            fill="#DAE6F5" />
        <path
            d="M695.462 951.712H563.657C562.89 951.712 562.268 951.09 562.268 950.323V940.363C562.268 939.596 562.89 938.974 563.657 938.974H695.462C696.229 938.974 696.85 939.596 696.85 940.363V950.323C696.85 951.09 696.229 951.712 695.462 951.712Z"
            fill="#DAE6F5" />
        <path
            d="M635.604 836.194C635.604 858.522 617.503 876.624 595.175 876.624C572.845 876.624 554.744 858.522 554.744 836.194C554.744 813.865 572.845 795.765 595.175 795.765C617.503 795.765 635.604 813.865 635.604 836.194Z"
            fill="#DAE6F5" />
        <path
            d="M1519.68 1284.37H320.101C318.474 1284.37 317.156 1283.05 317.156 1281.43C317.156 1279.8 318.474 1278.48 320.101 1278.48H1519.68C1521.31 1278.48 1522.63 1279.8 1522.63 1281.43C1522.63 1283.05 1521.31 1284.37 1519.68 1284.37Z"
            fill="#CEDDED" />
        <path
            d="M1240.47 946.358H1106.26C1102.93 946.358 1100.23 943.658 1100.23 940.326V806.11C1100.23 802.78 1102.93 800.08 1106.26 800.08H1240.47C1243.81 800.08 1246.51 802.78 1246.51 806.11V940.326C1246.51 943.658 1243.81 946.358 1240.47 946.358Z"
            fill="#279AFF" />
        <path
            d="M1143.36 1416.89H997.422C995.034 1416.89 993.098 1414.96 993.098 1412.57V1350.07C993.098 1347.68 995.034 1345.74 997.422 1345.74H1143.36C1145.75 1345.74 1147.68 1347.68 1147.68 1350.07V1412.57C1147.68 1414.96 1145.75 1416.89 1143.36 1416.89Z"
            fill="#688BCF" />
        <path
            d="M1143.36 1397.94H997.422C995.034 1397.94 993.098 1396 993.098 1393.62V1331.12C993.098 1328.73 995.034 1326.79 997.422 1326.79H1143.36C1145.75 1326.79 1147.68 1328.73 1147.68 1331.12V1393.62C1147.68 1396 1145.75 1397.94 1143.36 1397.94Z"
            fill="#279AFF" />
        <path
            d="M1189.38 911.588C1196.64 911.7 1202.56 917.837 1202.59 925.296C1202.63 932.754 1196.76 938.71 1189.5 938.6C1182.24 938.488 1176.32 932.35 1176.29 924.892C1176.26 917.433 1182.12 911.476 1189.38 911.588Z"
            fill="#EDBBA0" />
        <path
            d="M1439.02 1009.1C1434.67 1004.23 1427.27 1004.21 1422.5 1009.06C1417.72 1013.91 1417.37 1021.79 1421.72 1026.67C1426.07 1031.54 1433.46 1031.56 1438.24 1026.71C1443.02 1021.86 1443.36 1013.98 1439.02 1009.1Z"
            fill="#EDBBA0" />
        <path
            d="M1380.54 1061.45L1337.93 1024.74C1332.54 1021.29 1326.02 1023.32 1323.35 1029.28C1320.68 1035.24 1322.88 1042.87 1328.27 1046.32L1370.87 1083.03C1379.64 1088.65 1390.33 1087.11 1396.88 1079.28L1432.58 1034.69L1415.41 1018.01L1380.54 1061.45Z"
            fill="#F2D279" />
        <path d="M1282.35 1350.26L1299.51 1349.62L1299.26 1319.43L1281.8 1320.2L1282.35 1350.26Z" fill="#EDBBA0" />
        <path
            d="M1254.45 1364.35L1299.83 1363.83L1299.55 1343.95L1272.19 1344.23C1262.3 1344.34 1254.36 1353.35 1254.45 1364.35Z"
            fill="#27222E" />
        <path d="M1358.69 1350.26L1341.53 1349.62L1337.93 1319.43L1355.39 1320.2L1358.69 1350.26Z" fill="#EDBBA0" />
        <path
            d="M1386.59 1364.35L1342.83 1363.82L1340.85 1343.95L1368.85 1344.23C1378.74 1344.34 1386.68 1353.35 1386.59 1364.35Z"
            fill="#27222E" />
        <path
            d="M1281.23 1115.73L1311.03 1114.62L1314.13 1114.5L1343.94 1113.39L1344.3 1157L1283.49 1159.27L1281.23 1115.73Z"
            fill="#20375E" />
        <path
            d="M1335.61 1333.84L1362.69 1333.66L1348.44 1221.38L1343.94 1113.39L1315.19 1118.1L1319.09 1222.39C1319.06 1223.58 1319.16 1224.78 1319.39 1225.94L1335.61 1333.84Z"
            fill="#20375E" />
        <path
            d="M1276.37 1332.55L1302.17 1332.78L1298.36 1225.83L1312.78 1118.96L1281.23 1115.73L1269.05 1223.96C1268.93 1225.03 1268.93 1226.12 1269.03 1227.19L1276.37 1332.55Z"
            fill="#20375E" />
        <path d="M1321.6 1029.01H1304.05V1005.44H1321.6V1029.01Z" fill="#EDBBA0" />
        <path
            d="M1295.35 991.263C1295.35 994.485 1292.74 997.095 1289.52 997.095C1286.3 997.095 1283.69 994.485 1283.69 991.263C1283.69 988.042 1286.3 985.431 1289.52 985.431C1292.74 985.431 1295.35 988.042 1295.35 991.263Z"
            fill="#EDBBA0" />
        <path
            d="M1342.24 991.263C1342.24 994.485 1339.62 997.095 1336.4 997.095C1333.18 997.095 1330.57 994.485 1330.57 991.263C1330.57 988.042 1333.18 985.431 1336.4 985.431C1339.62 985.431 1342.24 988.042 1342.24 991.263Z"
            fill="#EDBBA0" />
        <path
            d="M1336.92 986.234C1336.92 999.476 1326.18 1010.21 1312.94 1010.21C1299.7 1010.21 1288.97 999.476 1288.97 986.234C1288.97 972.992 1299.7 962.257 1312.94 962.257C1326.18 962.257 1336.92 972.992 1336.92 986.234Z"
            fill="#182543" />
        <path
            d="M1343.99 1118.66H1280.65L1278.22 1044.19C1278.22 1031.71 1285.98 1021.6 1297.69 1021.6H1326.95C1338.67 1021.6 1346.43 1031.71 1346.43 1044.19L1343.99 1118.66Z"
            fill="#F2D279" />
        <path
            d="M1281.85 1048.91L1234.31 999.628C1234.08 999.391 1233.86 999.145 1233.66 998.893L1187 942.492L1206.92 926.016L1253.26 982.04L1300.45 1030.97L1281.85 1048.91Z"
            fill="#F2D279" />
        <path d="M1018.22 574.893L1034.92 574.27L1027.73 544.882L1010.74 545.639L1018.22 574.893Z" fill="#EDBBA0" />
        <path
            d="M991.055 588.611L1035.23 588.104L1034.96 568.75L1008.32 569.031C998.699 569.134 990.968 577.899 991.055 588.611Z"
            fill="#27222E" />
        <path d="M940.115 487.018L956.82 486.395L947.503 461.055L930.512 461.812L940.115 487.018Z" fill="#EBB197" />
        <path
            d="M914.194 504.784L958.369 504.276L958.099 484.922L931.462 485.203C921.837 485.306 914.106 494.072 914.194 504.784Z"
            fill="#161616" />
        <path
            d="M1028.49 388.104L917.098 422.86L926.571 400.394L958.56 474.212L930.015 475.895L895.118 413.595C891.346 405.47 894.808 395.839 902.852 391.963L904.59 391.127L1009.74 340.523L1028.49 388.104Z"
            fill="#1E3248" />
        <path
            d="M818.491 441.167C814.259 436.421 807.059 436.403 802.41 441.124C797.76 445.845 797.422 453.519 801.654 458.264C805.886 463.009 813.086 463.028 817.735 458.307C822.384 453.585 822.723 445.911 818.491 441.167Z"
            fill="#E5A7A8" />
        <path
            d="M825.79 454.877L811.685 433.98L871.47 393.633L911.004 327.744L932.62 340.714L891.648 409.002C890.701 410.581 889.418 411.934 887.892 412.965L825.79 454.877Z"
            fill="#E9C66F" />
        <path d="M896.056 327.738L909.735 327.93L914.193 345.922L888.4 341.738L896.056 327.738Z" fill="#EDBBA0" />
        <path
            d="M849.704 334.03L853.611 329.458L859.654 334.599L855.422 338.116L851.21 337.73C849.394 337.562 848.52 335.416 849.704 334.03Z"
            fill="#EDBBA0" />
        <path
            d="M857.726 342.914C866.188 353.09 881.296 354.479 891.473 346.019C901.648 337.557 903.037 322.449 894.577 312.273C886.114 302.097 871.006 300.706 860.829 309.167C850.654 317.63 849.264 332.738 857.726 342.914Z"
            fill="#EDBBA0" />
    </g>
    <mask id="mask1_1_507" style="mask-type:luminance" maskUnits="userSpaceOnUse" x="852" y="303" width="49"
        height="49">
        <path
            d="M860.829 309.168C850.654 317.63 849.264 332.739 857.725 342.914C866.188 353.091 881.295 354.481 891.473 346.019C901.648 337.557 903.037 322.448 894.577 312.272C889.837 306.574 883.013 303.629 876.139 303.629C870.737 303.629 865.306 305.446 860.829 309.168Z"
            fill="white" />
    </mask>
    <g mask="url(#mask1_1_507)">
        <path d="M855.486 303.993L905.911 342.661L897.728 301.497L855.486 303.993Z" fill="#182543" />
    </g>
    <mask id="mask2_1_507" style="mask-type:luminance" maskUnits="userSpaceOnUse" x="0" y="0" width="1871"
        height="1636">
        <path d="M0 -6.55651e-06H1871V1636H0V-6.55651e-06Z" fill="white" />
    </mask>
    <g mask="url(#mask2_1_507)">
        <path
            d="M880.258 326.893C882.628 329.743 886.859 330.132 889.71 327.763C892.559 325.393 892.948 321.161 890.578 318.311C888.208 315.461 883.978 315.072 881.127 317.443C878.278 319.812 877.888 324.043 880.258 326.893Z"
            fill="#EDBBA0" />
        <path
            d="M989.678 323.656L990.176 373.885L918.586 385.04L904.933 327.863L910.768 325.301C921.693 320.505 933.812 319.128 945.533 321.349L956.752 322.328L989.678 323.656Z"
            fill="#F2D279" />
        <path
            d="M990.176 373.885L1040.3 377.279L1040.31 372.414C1040.38 344.715 1017.36 322.542 989.678 323.655L990.176 373.885Z"
            fill="#20375E" />
        <path
            d="M1040.3 377.279L1005.39 450.89L1005.77 441.358L1031.57 558.678L1004.48 559.003L973.164 449.603C972.509 447.319 972.465 445.006 972.934 442.838L973.546 440.069L990.449 363.106L1040.3 377.279Z"
            fill="#20375E" />
        <path
            d="M964.391 536.141L597.739 465.97C595.844 465.607 594.601 463.777 594.964 461.882L607.255 397.662C607.617 395.767 609.448 394.526 611.343 394.889L977.996 465.059C979.891 465.422 981.133 467.251 980.769 469.146L968.479 533.366C968.116 535.261 966.287 536.503 964.391 536.141Z"
            fill="white" />
        <path
            d="M946.238 491.368C945.04 497.639 938.957 501.765 932.688 500.565C926.417 499.367 922.293 493.284 923.492 487.015C924.693 480.744 930.77 476.619 937.041 477.82C943.312 479.019 947.438 485.097 946.238 491.368ZM954.698 514.657L946.546 501.511C949.046 499.147 950.866 496.017 951.561 492.387C953.322 483.179 947.266 474.257 938.06 472.495C928.852 470.733 919.93 476.788 918.168 485.996C916.406 495.203 922.461 504.125 931.669 505.888C935.322 506.588 938.925 506.039 942.057 504.568L950.088 517.516L954.698 514.657Z"
            fill="#98B6EE" />
        <path
            d="M889.602 492.847C885.37 488.102 878.17 488.083 873.52 492.805C868.871 497.526 868.532 505.201 872.764 509.946C876.996 514.69 884.196 514.71 888.846 509.987C893.495 505.266 893.834 497.593 889.602 492.847Z"
            fill="#EDBBA0" />
        <path
            d="M897.039 499.263L876.252 485.007L922.06 418.215L910.012 348.3L934.858 344.019L947.772 418.981C948.331 422.217 947.603 425.54 945.743 428.249L897.039 499.263Z"
            fill="#F2D279" />
        <path
            d="M1098.23 1277.63H727.336C727.336 1261.86 740.114 1249.09 755.877 1249.09H1069.69C1085.45 1249.09 1098.23 1261.86 1098.23 1277.63Z"
            fill="#C7DBF5" />
        <path
            d="M488.146 1411.7C488.096 1410.31 484.904 1376 484.904 1376L502.725 1372.43L506.192 1408.11L488.146 1411.7Z"
            fill="#EDBBA0" />
        <path
            d="M539.387 1409.23L489.69 1419.41L486.633 1404.14L520.949 1397.11C529.386 1395.37 537.641 1400.79 539.387 1409.23Z"
            fill="#161616" />
        <path
            d="M421.768 1218.55L491.691 1272.2L493.9 1273.89C497.677 1276.79 499.844 1281.08 500.235 1285.47L508.769 1383.8L483.96 1387.47L467.357 1286.46L475.901 1299.73L393.16 1265.11L421.768 1218.55Z"
            fill="#1E3248" />
        <path
            d="M377.062 1250.67L437.348 1229.23C442.382 1227.67 445.196 1222.32 443.638 1217.29L418.051 1134.71L369.914 1149.62C352.64 1154.97 342.975 1173.31 348.327 1190.59L377.062 1250.67Z"
            fill="#E9C66F" />
        <path
            d="M558.633 1229.88L439.345 1259.88C436.383 1260.63 433.381 1258.83 432.635 1255.87L402.635 1136.58C401.891 1133.62 403.687 1130.62 406.649 1129.87L525.937 1099.87C528.897 1099.13 531.901 1100.93 532.646 1103.89L562.646 1223.17C563.39 1226.13 561.594 1229.14 558.633 1229.88Z"
            fill="#279AFF" />
        <path
            d="M376.621 1440.26C376.945 1438.9 381.824 1405.02 381.824 1405.02L399.952 1406.34L394.972 1441.61L376.621 1440.26Z"
            fill="#EDBBA0" />
        <path
            d="M427.232 1449.91L376.502 1449.77L376.612 1434.2L411.641 1434.29C420.257 1434.3 427.237 1441.29 427.232 1449.91Z"
            fill="#27222E" />
        <path
            d="M418.647 1232.11L427.523 1302.76L428.152 1306.39C428.459 1308.14 428.38 1309.94 428.008 1311.58L405.018 1420.69L377.892 1418.71L392.916 1308.02L393.403 1316.83L376.512 1248.09L418.647 1232.11Z"
            fill="#20375E" />
        <path
            d="M494.24 1196.76C492.73 1203.16 486.314 1207.13 479.908 1205.62C473.502 1204.11 469.533 1197.7 471.042 1191.29C472.552 1184.88 478.968 1180.91 485.374 1182.42C491.78 1183.93 495.749 1190.35 494.24 1196.76Z"
            fill="#EDBBA0" />
        <path d="M475.581 1187.59L451.687 1200.66L459.208 1211.68L487.236 1198.73L475.581 1187.59Z" fill="#EDBBA0" />
        <path
            d="M408.189 1099.42L402.459 1097.42L399.817 1104.98L405.293 1105.89L408.765 1103.4C410.261 1102.33 409.928 1100.02 408.189 1099.42Z"
            fill="#EDBBA0" />
        <path
            d="M405.732 1111.24C403.549 1124.41 391.1 1133.32 377.928 1131.14C364.754 1128.95 355.846 1116.5 358.03 1103.33C360.213 1090.16 372.662 1081.25 385.834 1083.43C399.008 1085.62 407.916 1098.07 405.732 1111.24Z"
            fill="#EDBBA0" />
    </g>
    <mask id="mask3_1_507" style="mask-type:luminance" maskUnits="userSpaceOnUse" x="357" y="1083" width="50"
        height="49">
        <path
            d="M358.029 1103.33C355.847 1116.5 364.755 1128.95 377.928 1131.14C391.1 1133.32 403.549 1124.41 405.732 1111.24C407.915 1098.07 399.007 1085.62 385.835 1083.43C384.495 1083.21 383.164 1083.11 381.851 1083.11C370.239 1083.11 359.992 1091.5 358.029 1103.33Z"
            fill="white" />
    </mask>
    <g mask="url(#mask3_1_507)">
        <path d="M387.852 1076.2L363.642 1135.57L349.796 1095.55L387.852 1076.2Z" fill="#182543" />
    </g>
    <mask id="mask4_1_507" style="mask-type:luminance" maskUnits="userSpaceOnUse" x="0" y="0" width="1871"
        height="1636">
        <path d="M0 -6.55651e-06H1871V1636H0V-6.55651e-06Z" fill="white" />
    </mask>
    <g mask="url(#mask4_1_507)">
        <path
            d="M377.947 1108.77C377.337 1112.46 373.85 1114.95 370.162 1114.34C366.473 1113.73 363.977 1110.24 364.589 1106.55C365.199 1102.86 368.686 1100.37 372.375 1100.98C376.063 1101.59 378.558 1105.08 377.947 1108.77Z"
            fill="#EDBBA0" />
        <path
            d="M361.417 1124.92C356.785 1135.64 344.335 1140.58 333.609 1135.95C322.883 1131.32 317.942 1118.87 322.574 1108.15C327.206 1097.42 339.655 1092.48 350.382 1097.11C361.109 1101.74 366.049 1114.19 361.417 1124.92Z"
            fill="#182543" />
        <path
            d="M392.335 1127.5C392.434 1128.9 394.717 1160.97 394.717 1160.97L372.806 1148.51L373.625 1128.06L392.335 1127.5Z"
            fill="#EDBBA0" />
        <path
            d="M406.775 1250.74C402.357 1250.89 397.984 1248.86 395.287 1245L352.663 1184.15C348.396 1178.06 349.875 1169.66 355.967 1165.4C362.059 1161.13 370.457 1162.61 374.724 1168.7L410.277 1219.46L462.453 1189.42L475.895 1212.76L413.037 1248.95C411.064 1250.08 408.913 1250.67 406.775 1250.74Z"
            fill="#F2D279" />
        <path
            d="M766.527 660.614H532.678C531.911 660.614 531.289 659.993 531.289 659.225V649.266C531.289 648.5 531.911 647.877 532.678 647.877H766.527C767.294 647.877 767.915 648.5 767.915 649.266V659.225C767.915 659.993 767.294 660.614 766.527 660.614Z"
            fill="white" />
        <path
            d="M766.527 740.809H532.678C531.911 740.809 531.289 740.187 531.289 739.421V729.461C531.289 728.694 531.911 728.071 532.678 728.071H766.527C767.294 728.071 767.915 728.694 767.915 729.461V739.421C767.915 740.187 767.294 740.809 766.527 740.809Z"
            fill="white" />
        <path
            d="M819.927 700.542H532.678C531.911 700.542 531.288 699.921 531.288 699.153V689.194C531.288 688.427 531.911 687.805 532.678 687.805H819.927C820.694 687.805 821.315 688.427 821.315 689.194V699.153C821.315 699.921 820.694 700.542 819.927 700.542Z"
            fill="white" />
        <path
            d="M1169.11 232.046H1019.56C1019.56 232.046 1030.52 187.131 1069.2 187.131C1097.85 187.131 1112.73 205.254 1118.52 214.647C1129.82 210.226 1154.16 204.859 1169.11 232.046Z"
            fill="white" />
        <path
            d="M1387.39 375.249C1394.75 375.249 1401.64 377.244 1407.62 380.699C1419.05 360.771 1440.13 347.352 1464.32 347.352C1486.91 347.352 1506.83 359.028 1518.67 376.803C1524.93 355.391 1544.28 339.775 1567.21 339.775C1593.24 339.775 1614.65 359.885 1617.53 385.763C1619.63 385.427 1621.76 385.201 1623.94 385.201C1639.82 385.201 1653.58 394.395 1660.49 407.857H1347.24C1351.52 389.175 1367.85 375.249 1387.39 375.249Z"
            fill="white" />
    </g>
</svg>